<?xml version="1.0" encoding="utf-8"?>
<!-- Generator: Adobe Illustrator 26.5.1, SVG Export Plug-In . SVG Version: 6.00 Build 0)  -->
<svg version="1.1" xmlns="http://www.w3.org/2000/svg" xmlns:xlink="http://www.w3.org/1999/xlink" x="0px" y="0px"
	 viewBox="0 0 32 32">
<style type="text/css">
	.st0{fill:url(#SVGID_1_);}
	.st1{fill:#E76F51;}
</style>
<g id="Layer_1">
	<g>
		<linearGradient id="SVGID_1_" gradientUnits="userSpaceOnUse" x1="15.8934" y1="16.9405" x2="24.8257" y2="27.5272">
			<stop  offset="0" style="stop-color:#FFFFFF"/>
			<stop  offset="6.164330e-02" style="stop-color:#FBE6E0"/>
			<stop  offset="0.1521" style="stop-color:#F6C6BA"/>
			<stop  offset="0.2497" style="stop-color:#F1AB9A"/>
			<stop  offset="0.3541" style="stop-color:#ED957F"/>
			<stop  offset="0.4681" style="stop-color:#EB846B"/>
			<stop  offset="0.5962" style="stop-color:#E9785C"/>
			<stop  offset="0.7502" style="stop-color:#E77154"/>
			<stop  offset="1" style="stop-color:#E76F51"/>
		</linearGradient>
		<path class="st0" d="M18.6,13c1.9,0,3.4,0.7,4.6,2.2s1.7,3.4,1.7,5.8c0,2.3-0.6,4.1-1.7,5.4s-2.6,2-4.5,2c-1.5,0-2.8-0.5-4-1.4
			c-1.7-1.4-2.6-3.5-2.6-6.2c0-2.4,0.6-4.2,1.8-5.6S16.6,13,18.6,13z M18.6,14c-2.6,0-4,2.3-4,7c0,4.3,1.3,6.4,3.9,6.4
			c1.2,0,2.1-0.6,2.8-1.7s0.9-2.8,0.9-5c0-2.5-0.3-4.2-0.9-5.2C20.7,14.5,19.8,14,18.6,14z M22.4,13.6c1.1,0.5,2,1.5,2.6,2.8
			s1,2.8,1,4.5c0,2.5-0.6,4.5-1.9,6.1s-3,2.3-5,2.3c-1.3,0-2.6-0.4-3.7-1.3v-0.1c1,0.7,2.2,1.1,3.6,1.1c2,0,3.6-0.7,4.8-2.2
			s1.9-3.4,1.9-5.7c0-1.7-0.3-3.2-0.9-4.5s-1.4-2.2-2.4-2.9V13.6z M21.1,15.8l-0.2-0.1c-0.8-0.4-1.4-0.6-2.1-0.6
			c-2.1,0-3.1,2-3.1,6.1c0,3,0.6,4.9,1.9,5.9l-0.1,0.1c-0.8-0.6-1.3-1.3-1.7-2.2s-0.5-2.1-0.5-3.7c0-4.3,1.1-6.5,3.4-6.5
			C19.9,14.7,20.6,15.1,21.1,15.8z"/>
	</g>
</g>
<g id="Layer_2">
	<g>
		<path d="M19.2,3.2L17,7.5c-0.1-1.2-0.5-2.2-1.2-2.8s-1.5-1-2.5-1c-1.5,0-2.6,0.6-3.4,1.7s-1.2,2.7-1.2,4.8c0,4.5,1.9,6.8,5.6,6.8
			h1.9v-6.1h-3c-0.6,0-1.1,0-1.4-0.1s-0.5-0.2-0.8-0.5v-0.3c0.3,0.2,0.6,0.3,0.8,0.4s0.7,0.1,1.4,0.1h2.9V9.9h-3.3h-0.5
			c-1.2,0-1.7-0.4-1.7-1.3c0-0.3,0.1-0.6,0.3-0.8s0.4-0.4,0.7-0.4c0.2,0,0.4,0.1,0.5,0.2s0.2,0.3,0.2,0.5c0,0.3-0.1,0.5-0.4,0.6
			l-0.3,0.1c-0.1,0-0.1,0.1-0.1,0.1c0,0.1,0.1,0.2,0.4,0.2h0.4h7.7l-1.6,1.6v5.8l1.5,1.3h-6h-1.2c-1,0-1.8-0.1-2.5-0.4
			s-1.3-0.7-2-1.3C6.8,14.7,6,12.8,6,10.4c0-2.5,0.7-4.4,2.2-5.8c1.3-1.2,2.8-1.8,4.6-1.8c0.8,0,1.7,0.1,2.7,0.4
			c1.1,0.3,1.8,0.4,2.1,0.4C18.2,3.6,18.7,3.4,19.2,3.2z M16.1,5.7l-0.2-0.2c-0.9-0.6-1.7-0.9-2.4-0.9c-0.9,0-1.7,0.3-2.3,0.9
			c-0.5,0.5-0.8,1.1-1,1.8s-0.3,1.8-0.3,3c0,1.6,0.2,2.8,0.5,3.6s0.9,1.6,1.7,2.3v0.1c-0.9-0.5-1.6-1.3-2-2.3s-0.6-2.3-0.6-4
			c0-1.9,0.3-3.3,1-4.3s1.7-1.5,2.9-1.5C14.6,4.3,15.5,4.7,16.1,5.7L16.1,5.7z M20.6,9.8L19.4,11v5.5l1.9,2.2l-4.7,0l-4.2,0
			c-0.3,0-0.5,0-0.6,0c-0.5-0.1-1-0.3-1.5-0.6h0.2c0.5,0.2,1.3,0.4,2.2,0.4l0.6,0h7.3l-1.6-1.8v-5.7l1.3-1.4L20.6,9.8z M19.9,3.9
			l-2,3.9l-0.3-0.1l2-3.9L19.9,3.9z"/>
	</g>
	<polygon class="st1" points="19.6,3.8 19.9,3.9 17.9,7.9 17.6,7.7 	"/>
	<path class="st1" d="M21.3,18.8l-1.9-2.2V11l1.2-1.2l-0.2-0.3l-1.3,1.4v5.7l1.6,1.8l-7.9,0c0,0-1.3,0-2.2-0.4h-0.2
		c0,0,0.8,0.7,1.8,0.7L21.3,18.8z"/>
	<polygon class="st1" points="20,4.6 19.4,5.7 20.8,5.7 	"/>
	<polyline class="st1" points="19.9,7.4 19.1,6.3 18.5,7.5 	"/>
</g>
</svg>
